<svg version="1.0" xmlns="http://www.w3.org/2000/svg"
 width="992.000000pt" height="992.000000pt" viewBox="0 0 992.000000 992.000000"
 preserveAspectRatio="xMidYMid meet">
<g transform="translate(0.000000,992.000000) scale(0.100000,-0.100000)"
fill="currentColor" stroke="none">
<path d="M2045 9583 c-33 -18 -47 -33 -72 -78 -14 -26 -16 -69 -16 -318 l0
-287 -26 17 c-14 9 -51 35 -83 57 -31 23 -66 48 -78 56 -12 8 -28 20 -34 25
-32 29 -219 156 -242 165 -37 14 -122 10 -135 -7 -7 -7 -17 -13 -24 -13 -19 0
-56 -65 -62 -106 -7 -50 27 -113 81 -149 69 -47 484 -344 547 -392 l57 -43 -2
-246 c-1 -211 -3 -248 -16 -250 -98 -19 -191 -63 -288 -136 l-62 -48 -228 121
c-125 67 -228 123 -230 124 -3 2 -5 14 -17 100 -3 22 -8 51 -11 65 -3 14 -7
43 -10 64 -2 22 -8 64 -13 95 -6 31 -13 76 -16 101 -3 25 -8 52 -10 60 -2 8
-7 35 -10 60 -3 25 -10 69 -15 99 -5 29 -7 57 -5 61 3 5 1 11 -5 15 -5 3 -10
14 -10 23 0 25 -39 66 -86 90 -72 36 -158 15 -210 -53 -24 -32 -26 -40 -21
-107 3 -40 9 -86 12 -103 4 -16 8 -43 10 -60 2 -16 6 -41 9 -55 3 -14 8 -48
12 -75 3 -28 11 -79 18 -113 7 -34 11 -64 9 -66 -3 -2 -35 12 -71 31 -37 19
-110 58 -162 86 -52 27 -126 67 -165 87 -169 91 -180 94 -242 78 -78 -20 -129
-91 -118 -164 9 -61 39 -92 142 -144 48 -25 90 -47 93 -50 3 -3 34 -20 70 -38
36 -18 72 -37 80 -42 75 -44 164 -90 175 -90 7 0 15 -6 18 -14 4 -10 -13 -20
-56 -36 -34 -11 -71 -25 -82 -30 -28 -11 -89 -35 -95 -36 -3 0 -13 -4 -22 -7
-10 -4 -26 -10 -35 -14 -10 -3 -20 -7 -23 -7 -13 -3 -159 -60 -188 -74 -71
-32 -101 -121 -66 -195 26 -54 104 -96 165 -89 22 3 60 13 94 26 22 8 90 33
150 54 61 22 148 54 195 72 47 17 93 33 104 35 10 2 25 10 34 17 8 7 16 11 16
8 1 -2 43 11 95 30 l94 34 62 -33 c34 -17 133 -70 220 -116 87 -47 162 -85
167 -85 4 0 9 -6 9 -12 1 -13 1 -16 -7 -53 -3 -11 -7 -42 -10 -70 -2 -27 -7
-57 -10 -67 -2 -9 -1 -19 4 -22 4 -2 7 -19 6 -36 -1 -17 4 -52 11 -79 7 -27
10 -53 6 -58 -3 -4 -47 -29 -96 -55 -145 -74 -160 -83 -163 -90 -2 -5 -10 -8
-19 -8 -8 0 -27 -8 -41 -18 -15 -10 -52 -31 -83 -46 l-55 -27 -145 51 c-79 28
-153 55 -164 60 -11 5 -40 16 -65 24 -55 17 -128 45 -155 58 -12 5 -27 10 -35
12 -8 2 -26 7 -40 13 -152 61 -220 71 -277 39 -58 -33 -86 -81 -80 -139 2 -27
13 -61 24 -75 20 -28 96 -70 173 -96 25 -8 119 -42 210 -76 91 -34 171 -62
178 -63 6 0 12 -1 12 -3 0 -3 -271 -151 -334 -181 -26 -13 -65 -35 -87 -49
-21 -13 -45 -24 -54 -24 -8 0 -15 -4 -15 -8 0 -5 -16 -16 -35 -25 -42 -20 -75
-70 -75 -113 0 -127 128 -199 246 -137 105 55 265 140 433 231 l83 45 -7 -44
c-3 -24 -9 -57 -11 -74 -2 -16 -6 -41 -9 -55 -3 -14 -7 -43 -10 -65 -5 -46
-14 -109 -21 -145 -13 -71 -16 -190 -5 -190 6 0 11 -6 11 -14 0 -21 55 -64 96
-75 54 -15 119 0 158 36 33 31 52 72 61 133 9 68 24 157 51 325 3 17 7 41 9
55 2 14 6 42 9 63 3 20 9 54 12 75 3 20 8 51 10 67 6 37 11 67 13 81 0 5 31
26 69 45 37 18 69 36 72 39 3 3 39 23 80 44 41 21 112 58 157 83 l82 44 68
-52 c73 -56 154 -97 244 -123 l57 -16 0 -245 0 -246 -78 -57 c-43 -31 -88 -64
-100 -72 -24 -17 -157 -114 -181 -133 -8 -7 -23 -16 -32 -22 -9 -5 -64 -45
-124 -89 -59 -43 -112 -80 -119 -83 -21 -8 -54 -81 -54 -120 0 -51 32 -98 85
-128 44 -24 117 -30 149 -11 18 10 232 164 281 202 35 27 168 124 170 124 2 0
2 -127 2 -283 0 -311 4 -335 62 -376 89 -63 225 -29 261 65 6 14 10 153 10
310 l0 286 38 -23 c20 -13 39 -26 42 -29 3 -4 26 -21 52 -38 25 -18 54 -39 62
-48 9 -8 16 -12 16 -7 0 4 4 3 8 -2 4 -6 32 -28 62 -50 30 -22 57 -42 60 -45
3 -3 12 -9 21 -15 9 -5 36 -23 59 -40 36 -25 53 -30 99 -30 82 1 136 34 156
96 23 67 12 109 -38 156 -23 22 -55 48 -72 58 -16 11 -42 28 -56 40 -14 11
-36 27 -48 35 -13 8 -71 50 -129 93 -59 43 -114 81 -122 85 -13 5 -27 16 -64
47 -7 6 -19 15 -27 20 -9 6 -39 26 -67 45 l-52 35 0 251 0 251 63 18 c79 22
176 72 251 129 36 28 64 42 70 37 11 -8 94 -53 226 -122 36 -19 68 -38 72 -44
4 -5 8 -7 8 -3 0 4 27 -8 59 -27 33 -19 64 -35 70 -35 6 0 12 -8 12 -17 1 -10
3 -27 5 -38 1 -11 5 -36 8 -55 3 -19 8 -51 12 -70 7 -45 13 -85 19 -135 3 -22
7 -47 10 -55 2 -8 7 -35 11 -60 3 -25 7 -54 9 -65 2 -11 6 -40 9 -65 3 -25 8
-56 11 -70 3 -14 8 -44 11 -68 10 -85 41 -126 115 -152 57 -20 120 -6 171 39
42 38 43 40 42 102 0 35 -3 83 -7 106 -9 47 -16 92 -22 138 -6 48 -16 105 -29
176 -7 36 -11 70 -8 77 2 7 21 0 50 -17 26 -15 67 -37 92 -50 25 -12 68 -35
95 -50 28 -15 112 -59 188 -99 122 -64 143 -72 182 -68 60 5 109 38 134 90 25
50 26 65 7 110 -19 46 -47 70 -136 115 -41 22 -113 60 -160 85 -47 25 -129 69
-182 98 -54 28 -98 54 -98 58 0 7 191 77 198 72 3 -2 8 1 11 6 3 5 31 17 61
27 30 10 101 36 158 57 118 46 151 77 160 153 6 57 -28 113 -85 140 -55 26
-93 26 -170 -2 -37 -13 -72 -26 -78 -27 -9 -3 -25 -9 -65 -24 -8 -3 -17 -6
-20 -6 -5 -1 -113 -40 -150 -54 -8 -3 -17 -6 -20 -6 -3 -1 -15 -7 -27 -14 -13
-7 -23 -10 -23 -7 0 3 -9 1 -21 -5 -11 -6 -28 -13 -37 -15 -14 -3 -165 -58
-222 -82 -44 -18 -46 -17 -325 134 -44 23 -101 53 -127 65 -54 26 -59 37 -42
94 12 41 12 210 0 254 -18 64 -18 65 32 92 143 77 187 100 293 156 64 34 121
62 127 62 6 0 23 -5 39 -12 15 -6 30 -12 33 -12 3 -1 19 -7 35 -13 17 -6 95
-35 175 -63 80 -28 154 -56 165 -61 11 -5 30 -11 42 -14 12 -2 30 -8 40 -13
10 -6 45 -19 78 -30 33 -12 79 -28 102 -36 51 -19 112 -26 119 -14 3 4 9 6 13
3 5 -2 23 5 41 18 78 53 99 127 57 200 -30 51 -52 63 -232 127 -49 17 -97 34
-105 37 -8 4 -17 7 -20 8 -3 1 -12 4 -20 8 -8 3 -55 20 -103 38 -48 17 -90 37
-94 43 -3 6 -3 8 2 4 4 -4 23 1 41 12 42 27 187 105 244 132 25 12 47 24 50
27 3 3 45 26 94 51 48 25 103 59 121 77 69 65 51 174 -37 223 -78 44 -114 35
-323 -80 -27 -15 -103 -55 -169 -90 -65 -34 -133 -70 -150 -81 -36 -22 -47
-24 -41 -6 3 6 7 30 9 52 3 22 7 54 10 70 10 51 18 99 22 128 7 54 16 113 25
161 22 117 2 172 -78 212 -44 22 -61 25 -100 19 -84 -12 -135 -66 -147 -155
-7 -54 -14 -93 -23 -140 -3 -19 -6 -38 -5 -41 0 -3 -12 -85 -28 -183 -16 -98
-29 -181 -28 -185 0 -3 -1 -8 -2 -11 -2 -7 -8 -37 -15 -87 -7 -48 -9 -50 -100
-98 -137 -72 -261 -138 -313 -167 l-54 -30 -50 43 c-27 23 -82 58 -121 78 -64
33 -98 46 -174 66 l-23 6 0 247 0 247 236 170 c130 94 270 194 312 224 124 88
154 133 137 210 -20 91 -149 147 -235 101 -34 -18 -173 -120 -182 -134 -4 -6
-8 -8 -8 -4 0 3 -57 -37 -127 -89 l-128 -94 -3 288 c-1 158 -5 295 -9 303 -3
8 -7 19 -7 23 -2 16 -52 60 -83 74 -43 18 -111 16 -148 -4z m190 -1868 c52
-11 144 -67 186 -112 66 -72 94 -143 94 -239 -1 -71 -5 -89 -33 -146 -49 -99
-161 -187 -264 -206 -41 -7 -143 -7 -183 0 -106 19 -222 108 -272 207 -25 49
-28 67 -28 146 1 77 5 98 28 147 45 93 171 193 255 202 12 2 24 5 27 8 7 7
151 2 190 -7z"/>
<path d="M8158 7649 c-18 -10 -62 -45 -98 -79 -36 -33 -96 -89 -134 -123 -144
-130 -236 -224 -237 -243 -1 -10 -2 -31 -3 -46 -7 -72 78 -144 165 -142 55 2
98 28 186 111 33 32 96 90 138 128 136 123 201 189 212 215 15 36 6 98 -19
133 -26 36 -96 68 -142 65 -19 -1 -50 -10 -68 -19z"/>
<path d="M8883 7608 c-20 -11 -42 -25 -48 -31 -11 -10 -155 -144 -235 -217
-15 -14 -71 -65 -124 -114 -53 -49 -106 -98 -118 -108 -11 -10 -66 -59 -120
-110 -55 -51 -114 -106 -132 -121 -108 -98 -234 -216 -258 -241 -35 -38 -45
-98 -24 -148 15 -35 64 -79 96 -85 73 -15 122 -4 168 36 32 27 160 145 241
221 41 38 159 146 261 240 84 77 244 223 305 280 181 166 204 189 205 202 1 4
7 19 14 33 11 21 11 32 -1 68 -8 23 -22 50 -31 61 -46 50 -138 66 -199 34z"/>
<path d="M6835 7261 c-49 -21 -204 -205 -261 -311 -10 -19 -25 -42 -32 -52 -7
-9 -15 -22 -16 -30 -2 -7 -9 -26 -16 -43 -7 -16 -14 -32 -15 -35 -1 -3 -5 -13
-8 -22 -15 -39 -20 -53 -23 -63 -19 -67 -34 -127 -39 -160 -11 -57 -13 -313
-4 -355 4 -19 10 -46 13 -60 61 -309 275 -602 571 -783 33 -20 66 -37 73 -37
6 0 12 -4 12 -8 0 -4 17 -14 38 -21 20 -8 55 -22 78 -33 22 -10 50 -20 62 -23
12 -2 27 -7 32 -10 12 -7 20 -9 125 -30 44 -8 97 -19 118 -24 42 -9 331 -7
387 3 19 4 60 12 90 18 30 6 60 11 65 12 6 1 16 5 23 9 6 5 12 6 12 4 0 -3 30
6 68 20 37 13 77 27 90 30 12 3 22 9 22 14 0 5 7 9 15 9 8 0 31 9 52 21 21 12
56 31 78 42 22 12 42 24 45 27 3 3 31 24 63 48 127 95 168 146 162 202 -1 14
-3 33 -4 44 -1 16 -66 86 -118 126 -49 38 -83 60 -93 60 -5 0 -10 4 -10 8 0 8
-199 112 -223 116 -7 2 -50 14 -97 29 -88 26 -121 34 -180 42 -19 3 -53 8 -75
11 -89 14 -399 5 -428 -13 -4 -2 -27 -7 -49 -10 -23 -2 -49 -8 -59 -13 -25
-14 -29 -2 -14 41 8 22 14 41 15 44 0 3 0 6 1 8 0 1 2 17 5 36 2 18 8 56 12
85 9 54 7 238 -3 296 -3 19 -7 44 -9 55 -1 12 -6 27 -10 34 -4 7 -6 15 -3 17
3 3 -9 42 -25 87 -16 45 -32 91 -35 102 -4 11 -9 22 -12 25 -3 3 -21 34 -40
70 -67 128 -229 314 -296 340 -31 12 -102 12 -130 1z m138 -461 c33 -54 79
-166 93 -225 4 -16 9 -37 11 -45 12 -50 18 -220 9 -266 -3 -12 -7 -39 -10 -60
-16 -101 -70 -236 -128 -322 -16 -23 -33 -40 -38 -37 -12 8 -101 155 -93 155
3 0 0 8 -8 18 -19 21 -54 127 -70 207 -13 66 -15 207 -5 270 18 113 107 333
157 388 13 14 16 14 32 -6 10 -12 32 -47 50 -77z m872 -1034 c33 -3 76 -8 95
-11 38 -6 198 -54 215 -64 6 -3 12 -6 15 -7 12 -2 45 -18 50 -24 3 -3 24 -14
48 -24 47 -21 52 -32 20 -46 -13 -6 -41 -21 -64 -33 -47 -27 -160 -74 -201
-83 -141 -31 -226 -42 -322 -39 -187 6 -280 30 -449 113 -104 52 -104 50 -8
102 70 38 141 65 221 86 83 22 91 23 170 30 39 4 71 7 72 8 2 2 20 1 40 -1 21
-1 65 -5 98 -7z"/>
<path d="M8973 6959 c-31 -6 -74 -30 -99 -53 -19 -19 -205 -189 -252 -231
-148 -134 -171 -166 -168 -231 4 -76 74 -134 163 -134 67 0 88 14 273 190 26
25 80 74 120 110 75 67 130 122 142 145 11 18 12 65 4 100 -14 62 -114 119
-183 104z"/>
<path d="M5885 6378 c-16 -6 -47 -27 -69 -47 -47 -44 -155 -182 -186 -236 -34
-58 -92 -170 -91 -173 1 -1 -6 -18 -14 -38 -13 -31 -33 -98 -39 -129 -1 -5 -6
-20 -10 -32 -12 -37 -17 -94 -20 -226 -3 -139 10 -242 44 -352 12 -38 22 -72
22 -75 0 -9 110 -215 117 -220 4 -3 23 -27 41 -55 44 -65 244 -265 265 -265 3
0 26 -15 52 -34 86 -60 270 -149 337 -162 11 -2 32 -8 46 -13 29 -11 108 -28
183 -39 105 -15 386 -8 477 12 47 10 92 20 100 21 8 1 28 7 43 14 16 6 32 11
36 11 7 0 115 43 184 73 15 6 27 15 27 19 0 5 6 8 13 8 22 0 171 106 241 172
66 61 69 66 71 114 2 61 -18 96 -85 149 -27 22 -50 43 -50 47 0 5 -5 8 -12 8
-6 0 -26 11 -44 25 -18 14 -37 25 -42 25 -6 0 -12 4 -14 8 -3 9 -189 102 -210
106 -7 1 -17 4 -23 8 -5 3 -36 12 -67 19 -32 8 -58 17 -58 22 0 4 -4 6 -8 3
-4 -2 -39 2 -77 10 -162 34 -398 33 -578 -4 -91 -19 -105 -18 -86 5 6 7 9 13
6 13 -3 0 1 23 8 51 27 101 38 288 23 384 -4 28 -10 68 -12 91 -3 22 -10 53
-15 67 -6 15 -8 27 -5 27 2 0 -2 14 -11 30 -9 17 -13 30 -11 30 9 0 -59 152
-93 208 -49 84 -110 162 -182 234 -90 92 -146 113 -224 86z m69 -374 c9 -3 16
-12 16 -19 0 -7 6 -18 14 -24 8 -7 21 -26 30 -44 9 -18 21 -39 25 -47 28 -47
72 -170 65 -182 -3 -4 -1 -8 4 -8 5 0 8 -10 7 -22 -1 -13 1 -27 5 -33 9 -11 5
-261 -4 -315 -8 -45 -33 -125 -54 -170 -9 -19 -17 -41 -18 -48 -1 -8 -9 -21
-17 -30 -8 -10 -18 -27 -21 -39 -4 -13 -11 -23 -15 -23 -4 0 -13 -12 -20 -27
l-12 -26 -34 50 c-40 60 -97 163 -90 163 3 0 0 10 -7 23 -7 12 -13 24 -13 27
-1 3 -10 32 -20 65 -10 33 -19 73 -21 90 -7 54 -6 199 1 244 10 70 53 208 81
264 23 46 76 136 81 137 1 0 8 -3 17 -6z m1001 -1128 c22 -4 48 -9 57 -12 10
-3 30 -7 44 -10 72 -13 290 -112 289 -131 -1 -6 -100 -59 -197 -104 -22 -11
-208 -58 -233 -59 -117 -8 -250 -10 -264 -5 -9 4 -36 8 -61 10 -40 3 -153 33
-205 54 -61 25 -177 88 -176 96 1 17 152 93 236 120 139 44 210 54 345 50 69
-2 143 -6 165 -9z"/>
<path d="M4914 5492 c-27 -13 -69 -53 -137 -131 -117 -134 -222 -349 -263
-540 -22 -102 -26 -312 -9 -413 14 -79 63 -248 75 -258 3 -3 12 -21 20 -40 29
-73 113 -199 187 -280 17 -19 40 -44 50 -55 31 -35 136 -121 198 -162 88 -59
267 -146 325 -158 8 -2 15 -4 15 -5 0 -1 7 -3 15 -5 158 -40 163 -41 265 -51
155 -16 332 -6 470 27 28 6 57 13 65 14 8 1 28 7 43 14 16 6 34 11 41 11 7 0
16 3 20 7 3 4 12 8 19 9 33 5 183 83 267 139 100 67 196 154 210 189 4 12 6
41 4 66 -3 39 -10 51 -57 96 -64 61 -180 141 -264 183 -64 32 -158 71 -183 76
-8 2 -16 4 -17 5 -3 3 -7 4 -48 14 -16 4 -37 10 -45 13 -17 7 -15 6 -120 24
-82 15 -331 18 -423 7 -32 -4 -87 -15 -123 -23 -84 -19 -87 -19 -74 5 6 11 9
20 6 20 -2 0 0 16 6 36 44 160 42 407 -4 567 -6 23 -12 44 -13 47 -9 43 -65
168 -106 240 -61 107 -225 290 -279 312 -39 16 -105 16 -136 0z m108 -408 c62
-89 118 -225 132 -319 2 -11 4 -20 6 -20 9 0 14 -197 7 -240 -3 -16 -9 -50
-12 -75 -4 -24 -9 -48 -12 -52 -2 -5 -6 -20 -9 -34 -7 -38 -64 -162 -102 -222
l-34 -54 -23 34 c-14 18 -28 38 -33 43 -13 16 -77 154 -95 205 -44 126 -52
294 -21 427 22 95 21 92 24 96 1 1 3 9 5 17 9 50 115 242 130 237 5 -2 22 -21
37 -43z m978 -1093 c133 -25 255 -68 367 -130 l31 -18 -51 -31 c-91 -54 -253
-114 -347 -127 -99 -15 -131 -18 -195 -17 -191 1 -370 49 -523 138 -40 24 -42
27 -25 38 57 40 196 104 241 112 14 3 32 9 41 13 15 8 51 15 146 28 22 3 41 6
43 8 8 7 214 -4 272 -14z"/>
<path d="M4008 4625 c-2 -2 -16 -6 -32 -9 -38 -7 -68 -33 -152 -131 -132 -155
-212 -313 -265 -525 -27 -109 -34 -331 -13 -438 26 -135 80 -291 123 -351 11
-16 18 -31 14 -35 -3 -3 -1 -6 5 -6 7 0 12 -5 12 -11 0 -18 111 -161 179 -229
75 -75 229 -191 274 -206 9 -4 17 -11 17 -17 0 -6 3 -7 6 -4 4 4 19 -2 33 -11
50 -34 251 -105 329 -117 21 -3 49 -8 62 -11 14 -3 39 -8 55 -11 42 -8 318 -8
385 1 124 15 302 67 403 118 31 15 57 25 57 21 0 -5 5 0 11 10 5 9 18 17 29
17 10 0 20 3 22 8 2 4 35 28 74 55 96 64 194 158 196 188 1 13 2 33 3 44 1 11
-3 32 -8 47 -17 53 -195 187 -337 254 -41 19 -83 39 -92 44 -10 6 -26 10 -36
10 -10 0 -22 4 -27 9 -8 7 -110 36 -164 46 -192 35 -389 38 -561 9 -14 -2 -36
-6 -50 -8 -14 -3 -25 -5 -25 -6 0 -1 -14 -4 -32 -6 l-31 -5 13 46 c8 24 17 64
20 87 3 24 8 56 11 72 17 84 6 298 -20 404 -3 12 -8 30 -10 40 -10 43 -51 152
-79 207 -98 198 -277 390 -374 401 -11 1 -23 1 -25 -1z m36 -400 c6 -11 17
-26 24 -33 38 -41 103 -198 128 -307 14 -59 13 -282 -1 -334 -7 -28 -11 -51
-8 -51 3 0 0 -6 -6 -13 -6 -8 -8 -17 -4 -20 3 -4 1 -13 -5 -20 -7 -7 -13 -22
-15 -33 -2 -10 -11 -36 -20 -58 -9 -21 -17 -42 -17 -47 0 -5 -4 -9 -10 -9 -5
0 -10 -4 -10 -9 0 -18 -62 -101 -71 -96 -5 4 -21 27 -36 53 -15 26 -30 49 -33
52 -15 11 -80 180 -95 245 -26 110 -19 303 14 413 1 1 2 5 2 10 5 33 72 179
103 225 14 21 26 43 26 48 0 16 22 5 34 -16z m938 -1109 c92 -11 174 -30 243
-56 47 -17 205 -95 205 -100 0 -21 -209 -114 -325 -144 -149 -38 -346 -41
-497 -7 -117 27 -320 117 -316 140 3 15 192 117 220 119 7 0 38 8 68 16 131
38 262 48 402 32z"/>
<path d="M2989 3723 c-21 -10 -118 -107 -154 -155 -87 -113 -159 -246 -201
-369 -15 -46 -29 -91 -31 -99 -1 -8 -9 -48 -16 -89 -19 -96 -18 -276 0 -377
31 -170 110 -352 209 -484 30 -39 51 -76 48 -82 -7 -11 -44 -45 -234 -218
-179 -163 -227 -214 -233 -251 -8 -38 -3 -74 13 -104 13 -24 75 -68 98 -71 10
0 22 -3 27 -5 16 -5 87 12 107 26 16 11 110 95 224 200 190 176 228 210 234
213 4 1 40 -17 81 -40 66 -39 133 -73 194 -99 43 -19 202 -67 240 -73 22 -4
51 -8 65 -11 139 -24 361 -20 503 9 15 3 37 8 50 10 86 17 297 96 328 122 8 8
19 14 22 14 11 0 111 63 119 74 4 6 8 8 8 4 0 -8 58 41 128 109 48 45 54 57
57 96 5 72 -17 102 -145 200 -80 61 -260 154 -350 182 -30 9 -62 19 -70 22
-26 10 -45 14 -62 14 -10 0 -18 3 -18 7 0 4 -20 8 -45 10 -24 1 -54 6 -67 11
-13 5 -111 7 -218 6 -183 -3 -217 -6 -280 -19 -93 -21 -108 -21 -102 -1 2 6 5
17 7 25 2 8 8 33 13 55 35 137 34 367 -2 513 -3 12 -8 30 -10 40 -9 41 -56
161 -82 212 -75 144 -217 317 -299 366 -48 27 -109 30 -156 7z m111 -405 c16
-24 34 -48 40 -55 5 -7 10 -19 10 -28 0 -8 4 -15 9 -15 5 0 11 -8 14 -17 3
-10 15 -45 27 -78 22 -59 24 -69 37 -130 9 -42 8 -293 -1 -330 -5 -16 -9 -37
-11 -45 -2 -8 -4 -17 -5 -20 -1 -3 -3 -9 -4 -15 -7 -48 -85 -214 -117 -248
-10 -11 -19 -25 -19 -31 0 -14 -59 74 -96 144 -28 52 -64 149 -80 215 -23 98
-20 301 6 370 5 14 9 29 8 33 -1 4 4 21 11 37 7 17 14 38 17 49 3 18 22 57 62
127 34 61 47 79 54 79 4 0 21 -19 38 -42z m871 -1082 c58 -5 100 -10 166 -21
34 -6 89 -24 184 -62 98 -39 149 -68 149 -83 0 -6 -4 -9 -9 -5 -5 3 -13 1 -16
-5 -17 -27 -286 -137 -306 -124 -5 3 -9 1 -9 -4 0 -5 -6 -9 -12 -9 -7 0 -33
-4 -58 -9 -53 -10 -290 -11 -340 -2 -78 15 -98 20 -160 40 -36 11 -78 28 -95
36 -16 9 -32 17 -35 17 -14 3 -101 48 -105 55 -13 21 201 123 303 145 12 3 32
7 45 10 32 8 73 14 147 21 36 3 67 7 69 10 2 2 7 1 11 -1 4 -2 36 -7 71 -9z"/>
</g>
</svg>
